<?xml version="1.0" encoding="UTF-8" standalone="no"?>
<!DOCTYPE svg PUBLIC "-//W3C//DTD SVG 1.1//EN"
 "http://www.w3.org/Graphics/SVG/1.1/DTD/svg11.dtd">
<!-- Generated by graphviz version 2.47.3 (0)
 -->
<!-- Title: ChallengeStates Pages: 1 -->
<svg width="876pt" height="896pt"
 viewBox="0.00 0.00 875.74 895.59" xmlns="http://www.w3.org/2000/svg" xmlns:xlink="http://www.w3.org/1999/xlink">
<g id="graph0" class="graph" transform="scale(1 1) rotate(0) translate(4 891.59)">
<title>ChallengeStates</title>
<polygon fill="white" stroke="transparent" points="-4,4 -4,-891.59 871.74,-891.59 871.74,4 -4,4"/>
<!-- Challenged -->
<g id="node1" class="node">
<title>Challenged</title>
<ellipse fill="none" stroke="black" cx="459.74" cy="-869.59" rx="63.09" ry="18"/>
<text text-anchor="middle" x="459.74" y="-865.89" font-family="Times,serif" font-size="14.00">Challenged</text>
</g>
<!-- QueryMerkleRootHashes -->
<g id="node2" class="node">
<title>QueryMerkleRootHashes</title>
<ellipse fill="none" stroke="black" cx="459.74" cy="-782.59" rx="127.28" ry="18"/>
<text text-anchor="middle" x="459.74" y="-778.89" font-family="Times,serif" font-size="14.00">QueryMerkleRootHashes</text>
</g>
<!-- Challenged&#45;&gt;QueryMerkleRootHashes -->
<g id="edge1" class="edge">
<title>Challenged&#45;&gt;QueryMerkleRootHashes</title>
<path fill="none" stroke="black" d="M459.74,-851.39C459.74,-839.75 459.74,-824.14 459.74,-810.83"/>
<polygon fill="black" stroke="black" points="463.24,-810.77 459.74,-800.77 456.24,-810.77 463.24,-810.77"/>
<text text-anchor="middle" x="558.24" y="-822.39" font-family="Times,serif" font-size="14.00">C: queryMerkleRootHashes</text>
</g>
<!-- RespondMerkleRootHashes -->
<g id="node3" class="node">
<title>RespondMerkleRootHashes</title>
<ellipse fill="none" stroke="black" cx="459.74" cy="-695.59" rx="139.18" ry="18"/>
<text text-anchor="middle" x="459.74" y="-691.89" font-family="Times,serif" font-size="14.00">RespondMerkleRootHashes</text>
</g>
<!-- QueryMerkleRootHashes&#45;&gt;RespondMerkleRootHashes -->
<g id="edge2" class="edge">
<title>QueryMerkleRootHashes&#45;&gt;RespondMerkleRootHashes</title>
<path fill="none" stroke="black" d="M459.74,-764.39C459.74,-752.75 459.74,-737.14 459.74,-723.83"/>
<polygon fill="black" stroke="black" points="463.24,-723.77 459.74,-713.77 456.24,-723.77 463.24,-723.77"/>
<text text-anchor="middle" x="566.24" y="-735.39" font-family="Times,serif" font-size="14.00">S: respondMerkleRootHashes</text>
</g>
<!-- QueryBlockHeader -->
<g id="node6" class="node">
<title>QueryBlockHeader</title>
<ellipse fill="none" stroke="black" cx="459.74" cy="-608.59" rx="98.58" ry="18"/>
<text text-anchor="middle" x="459.74" y="-604.89" font-family="Times,serif" font-size="14.00">QueryBlockHeader</text>
</g>
<!-- RespondMerkleRootHashes&#45;&gt;QueryBlockHeader -->
<g id="edge5" class="edge">
<title>RespondMerkleRootHashes&#45;&gt;QueryBlockHeader</title>
<path fill="none" stroke="black" d="M459.74,-677.39C459.74,-665.75 459.74,-650.14 459.74,-636.83"/>
<polygon fill="black" stroke="black" points="463.24,-636.77 459.74,-626.77 456.24,-636.77 463.24,-636.77"/>
<text text-anchor="middle" x="536.24" y="-648.39" font-family="Times,serif" font-size="14.00">C: queryBlockHeader</text>
</g>
<!-- VerifyScryptHash -->
<g id="node4" class="node">
<title>VerifyScryptHash</title>
<ellipse fill="none" stroke="black" cx="315.74" cy="-491.59" rx="92.88" ry="18"/>
<text text-anchor="middle" x="315.74" y="-487.89" font-family="Times,serif" font-size="14.00">VerifyScryptHash</text>
</g>
<!-- PendingVerification -->
<g id="node5" class="node">
<title>PendingVerification</title>
<ellipse fill="none" stroke="black" cx="100.74" cy="-185.59" rx="100.98" ry="18"/>
<text text-anchor="middle" x="100.74" y="-181.89" font-family="Times,serif" font-size="14.00">PendingVerification</text>
</g>
<!-- VerifyScryptHash&#45;&gt;PendingVerification -->
<g id="edge3" class="edge">
<title>VerifyScryptHash&#45;&gt;PendingVerification</title>
<path fill="none" stroke="black" d="M266.27,-476.22C217.46,-459.18 145.28,-425.63 110.74,-368.59 81.65,-320.55 88.09,-251.64 94.78,-213.89"/>
<polygon fill="black" stroke="black" points="98.29,-214.16 96.73,-203.68 91.41,-212.84 98.29,-214.16"/>
<text text-anchor="middle" x="230.74" y="-357.39" font-family="Times,serif" font-size="14.00">C: queryBlockHeader</text>
<text text-anchor="middle" x="230.74" y="-342.39" font-family="Times,serif" font-size="14.00"> Scrypt hash challenge is skipped</text>
<text text-anchor="middle" x="230.74" y="-327.39" font-family="Times,serif" font-size="14.00"> No remaining block headers</text>
</g>
<!-- VerifyScryptHash&#45;&gt;QueryBlockHeader -->
<g id="edge4" class="edge">
<title>VerifyScryptHash&#45;&gt;QueryBlockHeader</title>
<path fill="none" stroke="black" d="M392.5,-501.9C409.2,-507.14 425.5,-515.22 437.74,-527.59 451.5,-541.5 456.85,-563.17 458.84,-580.45"/>
<polygon fill="black" stroke="black" points="455.37,-580.86 459.7,-590.53 462.34,-580.27 455.37,-580.86"/>
<text text-anchor="middle" x="576.74" y="-561.39" font-family="Times,serif" font-size="14.00">C: queryBlockHeader</text>
<text text-anchor="middle" x="576.74" y="-546.39" font-family="Times,serif" font-size="14.00"> Scrypt hash challenge is skipped</text>
<text text-anchor="middle" x="576.74" y="-531.39" font-family="Times,serif" font-size="14.00"> Some block headers remain</text>
</g>
<!-- RequestScryptVerification -->
<g id="node8" class="node">
<title>RequestScryptVerification</title>
<polygon fill="none" stroke="black" points="453.24,-422.59 250.24,-422.59 250.24,-386.59 453.24,-386.59 453.24,-422.59"/>
<text text-anchor="middle" x="351.74" y="-400.89" font-family="Times,serif" font-size="14.00">RequestScryptVerification</text>
</g>
<!-- VerifyScryptHash&#45;&gt;RequestScryptVerification -->
<g id="edge8" class="edge">
<title>VerifyScryptHash&#45;&gt;RequestScryptVerification</title>
<path fill="none" stroke="black" d="M323.03,-473.39C328.05,-461.52 334.83,-445.52 340.54,-432.04"/>
<polygon fill="black" stroke="black" points="343.79,-433.34 344.47,-422.77 337.34,-430.61 343.79,-433.34"/>
<text text-anchor="middle" x="451.74" y="-444.39" font-family="Times,serif" font-size="14.00">C: requestScryptHashValidation</text>
</g>
<!-- Deleted -->
<g id="node11" class="node">
<title>Deleted</title>
<ellipse fill="none" stroke="black" cx="231.74" cy="-50.8" rx="46.61" ry="46.61"/>
<ellipse fill="none" stroke="black" cx="231.74" cy="-50.8" rx="50.59" ry="50.59"/>
<text text-anchor="middle" x="231.74" y="-47.1" font-family="Times,serif" font-size="14.00">Deleted</text>
</g>
<!-- PendingVerification&#45;&gt;Deleted -->
<g id="edge14" class="edge">
<title>PendingVerification&#45;&gt;Deleted</title>
<path fill="none" stroke="black" d="M75.17,-167.98C69.35,-162.84 63.94,-156.65 60.74,-149.59 55.23,-137.45 53.25,-130.62 60.74,-119.59 85.28,-83.46 132.42,-66.58 170.99,-58.7"/>
<polygon fill="black" stroke="black" points="171.93,-62.09 181.11,-56.8 170.63,-55.21 171.93,-62.09"/>
<text text-anchor="middle" x="221.74" y="-138.39" font-family="Times,serif" font-size="14.00">*: verifySuperblock</text>
<text text-anchor="middle" x="221.74" y="-123.39" font-family="Times,serif" font-size="14.00"> The challenger or the submitter is convicted</text>
</g>
<!-- QueryBlockHeader&#45;&gt;VerifyScryptHash -->
<g id="edge7" class="edge">
<title>QueryBlockHeader&#45;&gt;VerifyScryptHash</title>
<path fill="none" stroke="black" d="M367.25,-602.18C323.67,-597.49 278.29,-588.78 264.74,-572.59 251.91,-557.25 255.42,-545.29 264.74,-527.59 267.21,-522.9 270.62,-518.72 274.53,-515.02"/>
<polygon fill="black" stroke="black" points="276.97,-517.54 282.51,-508.51 272.55,-512.12 276.97,-517.54"/>
<text text-anchor="middle" x="349.24" y="-546.39" font-family="Times,serif" font-size="14.00">S: respondBlockHeader</text>
</g>
<!-- RespondBlockHeader -->
<g id="node7" class="node">
<title>RespondBlockHeader</title>
<ellipse fill="none" stroke="black" cx="668.74" cy="-185.59" rx="110.48" ry="18"/>
<text text-anchor="middle" x="668.74" y="-181.89" font-family="Times,serif" font-size="14.00">RespondBlockHeader</text>
</g>
<!-- RespondBlockHeader&#45;&gt;QueryBlockHeader -->
<g id="edge6" class="edge">
<title>RespondBlockHeader&#45;&gt;QueryBlockHeader</title>
<path fill="none" stroke="black" d="M687.37,-203.35C692.38,-208.73 697.34,-215.01 700.74,-221.59 714.29,-247.85 714.74,-257.04 714.74,-286.59 714.74,-492.59 714.74,-492.59 714.74,-492.59 714.74,-528.69 726.63,-547.44 700.74,-572.59 681.47,-591.31 621.94,-600.07 566.87,-604.15"/>
<polygon fill="black" stroke="black" points="566.38,-600.67 556.65,-604.85 566.86,-607.65 566.38,-600.67"/>
<text text-anchor="middle" x="791.24" y="-408.39" font-family="Times,serif" font-size="14.00">C: queryBlockHeader</text>
<text text-anchor="middle" x="791.24" y="-393.39" font-family="Times,serif" font-size="14.00"> </text>
</g>
<!-- PendingScryptVerification -->
<g id="node9" class="node">
<title>PendingScryptVerification</title>
<polygon fill="none" stroke="black" points="465.24,-305.59 262.24,-305.59 262.24,-269.59 465.24,-269.59 465.24,-305.59"/>
<text text-anchor="middle" x="363.74" y="-283.89" font-family="Times,serif" font-size="14.00">PendingScryptVerification</text>
</g>
<!-- RequestScryptVerification&#45;&gt;PendingScryptVerification -->
<g id="edge9" class="edge">
<title>RequestScryptVerification&#45;&gt;PendingScryptVerification</title>
<path fill="none" stroke="black" d="M353.56,-386.13C355.51,-367.44 358.63,-337.56 360.9,-315.8"/>
<polygon fill="black" stroke="black" points="364.38,-316.15 361.94,-305.85 357.42,-315.43 364.38,-316.15"/>
<text text-anchor="middle" x="430.74" y="-342.39" font-family="Times,serif" font-size="14.00">H: scryptSubmitted</text>
</g>
<!-- PendingScryptVerification&#45;&gt;PendingVerification -->
<g id="edge10" class="edge">
<title>PendingScryptVerification&#45;&gt;PendingVerification</title>
<path fill="none" stroke="black" d="M262.18,-277.05C217.05,-271.37 169.84,-263.01 150.74,-251.59 135.21,-242.3 122.77,-226.2 114.18,-212.35"/>
<polygon fill="black" stroke="black" points="117.17,-210.54 109.1,-203.67 111.13,-214.07 117.17,-210.54"/>
<text text-anchor="middle" x="253.74" y="-240.39" font-family="Times,serif" font-size="14.00">H: scryptVerified</text>
<text text-anchor="middle" x="253.74" y="-225.39" font-family="Times,serif" font-size="14.00"> No remaining block headers</text>
</g>
<!-- PendingScryptVerification&#45;&gt;RespondBlockHeader -->
<g id="edge11" class="edge">
<title>PendingScryptVerification&#45;&gt;RespondBlockHeader</title>
<path fill="none" stroke="black" d="M439.52,-269.58C451.92,-264.91 464.15,-259.01 474.74,-251.59 488.5,-241.95 483.5,-230.51 497.74,-221.59 516.87,-209.62 539.34,-201.65 561.6,-196.37"/>
<polygon fill="black" stroke="black" points="562.44,-199.76 571.45,-194.19 560.93,-192.93 562.44,-199.76"/>
<text text-anchor="middle" x="599.24" y="-240.39" font-family="Times,serif" font-size="14.00">H: scryptVerified</text>
<text text-anchor="middle" x="599.24" y="-225.39" font-family="Times,serif" font-size="14.00"> Some block headers remain</text>
</g>
<!-- SuperblockFailed -->
<g id="node10" class="node">
<title>SuperblockFailed</title>
<ellipse fill="none" stroke="black" cx="383.74" cy="-185.59" rx="90.98" ry="18"/>
<text text-anchor="middle" x="383.74" y="-181.89" font-family="Times,serif" font-size="14.00">SuperblockFailed</text>
</g>
<!-- PendingScryptVerification&#45;&gt;SuperblockFailed -->
<g id="edge12" class="edge">
<title>PendingScryptVerification&#45;&gt;SuperblockFailed</title>
<path fill="none" stroke="black" d="M361.8,-269.46C360.82,-256.17 360.59,-237.42 364.74,-221.59 365.52,-218.61 366.61,-215.61 367.87,-212.68"/>
<polygon fill="black" stroke="black" points="371.01,-214.22 372.32,-203.7 364.74,-211.1 371.01,-214.22"/>
<text text-anchor="middle" x="419.74" y="-232.89" font-family="Times,serif" font-size="14.00">H: scryptFailed</text>
</g>
<!-- SuperblockFailed&#45;&gt;Deleted -->
<g id="edge13" class="edge">
<title>SuperblockFailed&#45;&gt;Deleted</title>
<path fill="none" stroke="black" d="M388.21,-167.38C390.81,-153.35 391.99,-133.64 382.74,-119.59 362.48,-88.81 324.63,-71.86 291.9,-62.6"/>
<polygon fill="black" stroke="black" points="292.49,-59.14 281.93,-59.97 290.7,-65.9 292.49,-59.14"/>
<text text-anchor="middle" x="487.74" y="-138.39" font-family="Times,serif" font-size="14.00">*: verifySuperblock</text>
<text text-anchor="middle" x="487.74" y="-123.39" font-family="Times,serif" font-size="14.00"> The submitter is convicted</text>
</g>
</g>
</svg>
