<?xml version="1.0" encoding="UTF-8" standalone="no"?>
<!DOCTYPE svg PUBLIC "-//W3C//DTD SVG 1.1//EN"
 "http://www.w3.org/Graphics/SVG/1.1/DTD/svg11.dtd">
<!-- Generated by graphviz version 2.47.3 (0)
 -->
<!-- Title: SuperblockClaims Pages: 1 -->
<svg width="1122pt" height="622pt"
 viewBox="0.00 0.00 1121.89 622.43" xmlns="http://www.w3.org/2000/svg" xmlns:xlink="http://www.w3.org/1999/xlink">
<g id="graph0" class="graph" transform="scale(1 1) rotate(0) translate(4 618.43)">
<title>SuperblockClaims</title>
<polygon fill="white" stroke="transparent" points="-4,4 -4,-618.43 1117.89,-618.43 1117.89,4 -4,4"/>
<!-- NewSuperblock -->
<g id="node1" class="node">
<title>NewSuperblock</title>
<ellipse fill="none" stroke="black" cx="537.89" cy="-596.43" rx="85.29" ry="18"/>
<text text-anchor="middle" x="537.89" y="-592.73" font-family="Times,serif" font-size="14.00">New superblock</text>
</g>
<!-- ClaimSubmitted -->
<g id="node2" class="node">
<title>ClaimSubmitted</title>
<ellipse fill="none" stroke="black" cx="537.89" cy="-500.56" rx="279.11" ry="26.74"/>
<text text-anchor="middle" x="537.89" y="-504.36" font-family="Times,serif" font-size="14.00">New claim</text>
<text text-anchor="middle" x="537.89" y="-489.36" font-family="Times,serif" font-size="14.00"> Superblock claim in good standing but not approved</text>
</g>
<!-- NewSuperblock&#45;&gt;ClaimSubmitted -->
<g id="edge1" class="edge">
<title>NewSuperblock&#45;&gt;ClaimSubmitted</title>
<path fill="none" stroke="black" d="M537.89,-578.22C537.89,-566.91 537.89,-551.7 537.89,-537.81"/>
<polygon fill="black" stroke="black" points="541.39,-537.53 537.89,-527.53 534.39,-537.53 541.39,-537.53"/>
<text text-anchor="middle" x="616.39" y="-549.23" font-family="Times,serif" font-size="14.00">S: proposeSuperblock</text>
</g>
<!-- BattleOverClaim -->
<g id="node3" class="node">
<title>BattleOverClaim</title>
<ellipse fill="none" stroke="black" cx="169.89" cy="-404.69" rx="129.98" ry="18"/>
<text text-anchor="middle" x="169.89" y="-400.99" font-family="Times,serif" font-size="14.00">Claim is being challenged</text>
</g>
<!-- ClaimSubmitted&#45;&gt;BattleOverClaim -->
<g id="edge2" class="edge">
<title>ClaimSubmitted&#45;&gt;BattleOverClaim</title>
<path fill="none" stroke="black" d="M435.17,-475.49C408.96,-469.19 380.85,-462.31 354.89,-455.69 314.96,-445.51 270.36,-433.48 234.96,-423.77"/>
<polygon fill="black" stroke="black" points="235.8,-420.37 225.23,-421.1 233.95,-427.12 235.8,-420.37"/>
<text text-anchor="middle" x="439.39" y="-444.49" font-family="Times,serif" font-size="14.00">C: challengeSuperblock</text>
</g>
<!-- SemiApprovedClaim -->
<g id="node5" class="node">
<title>SemiApprovedClaim</title>
<ellipse fill="none" stroke="black" cx="445.89" cy="-157.22" rx="183.7" ry="37.45"/>
<text text-anchor="middle" x="445.89" y="-168.52" font-family="Times,serif" font-size="14.00">Claim is part of a superblockchain</text>
<text text-anchor="middle" x="445.89" y="-153.52" font-family="Times,serif" font-size="14.00"> that was challenged at least once</text>
<text text-anchor="middle" x="445.89" y="-138.52" font-family="Times,serif" font-size="14.00"> but remains in good standing</text>
</g>
<!-- ClaimSubmitted&#45;&gt;SemiApprovedClaim -->
<g id="edge8" class="edge">
<title>ClaimSubmitted&#45;&gt;SemiApprovedClaim</title>
<path fill="none" stroke="black" d="M537.92,-473.58C537.81,-407.23 536.31,-235.17 523.89,-212.69 521.36,-208.11 518.26,-203.83 514.77,-199.85"/>
<polygon fill="black" stroke="black" points="517.12,-197.25 507.63,-192.54 512.12,-202.14 517.12,-197.25"/>
<text text-anchor="middle" x="689.89" y="-357.49" font-family="Times,serif" font-size="14.00">*: checkClaimFinished</text>
<text text-anchor="middle" x="689.89" y="-342.49" font-family="Times,serif" font-size="14.00"> The claim is mature</text>
<text text-anchor="middle" x="689.89" y="-327.49" font-family="Times,serif" font-size="14.00"> The parent superblock is not approved yet</text>
</g>
<!-- ApprovedClaim -->
<g id="node6" class="node">
<title>ApprovedClaim</title>
<ellipse fill="none" stroke="black" cx="722.89" cy="-26.87" rx="274.21" ry="26.74"/>
<text text-anchor="middle" x="722.89" y="-30.67" font-family="Times,serif" font-size="14.00">Claim is approved and the superblock</text>
<text text-anchor="middle" x="722.89" y="-15.67" font-family="Times,serif" font-size="14.00"> is considered part of the canonical superblockchain</text>
</g>
<!-- ClaimSubmitted&#45;&gt;ApprovedClaim -->
<g id="edge7" class="edge">
<title>ClaimSubmitted&#45;&gt;ApprovedClaim</title>
<path fill="none" stroke="black" d="M707.9,-479.13C785.72,-464.87 860.89,-441.75 860.89,-405.69 860.89,-405.69 860.89,-405.69 860.89,-156.22 860.89,-118.16 871.33,-100.91 846.89,-71.74 842.41,-66.39 837.23,-61.69 831.58,-57.57"/>
<polygon fill="black" stroke="black" points="833.27,-54.49 823,-51.92 829.43,-60.34 833.27,-54.49"/>
<text text-anchor="middle" x="987.39" y="-294.49" font-family="Times,serif" font-size="14.00">*: checkClaimFinished</text>
<text text-anchor="middle" x="987.39" y="-279.49" font-family="Times,serif" font-size="14.00"> The claim is mature</text>
<text text-anchor="middle" x="987.39" y="-264.49" font-family="Times,serif" font-size="14.00"> The parent superblock is canonical</text>
</g>
<!-- GoodSuperblock -->
<g id="node4" class="node">
<title>GoodSuperblock</title>
<ellipse fill="none" stroke="black" cx="345.89" cy="-283.19" rx="128.88" ry="18"/>
<text text-anchor="middle" x="345.89" y="-279.49" font-family="Times,serif" font-size="14.00">Claim is in good standing</text>
</g>
<!-- BattleOverClaim&#45;&gt;GoodSuperblock -->
<g id="edge4" class="edge">
<title>BattleOverClaim&#45;&gt;GoodSuperblock</title>
<path fill="none" stroke="black" d="M128.77,-387.51C121.22,-382.62 114.34,-376.43 109.89,-368.69 99.93,-351.35 96.97,-338.96 109.89,-323.69 124.55,-306.38 169.66,-296.65 216.58,-291.18"/>
<polygon fill="black" stroke="black" points="217.05,-294.65 226.6,-290.08 216.28,-287.69 217.05,-294.65"/>
<text text-anchor="middle" x="216.89" y="-349.99" font-family="Times,serif" font-size="14.00">B: sessionDecided</text>
<text text-anchor="middle" x="216.89" y="-334.99" font-family="Times,serif" font-size="14.00"> The submitter won the battle</text>
</g>
<!-- InvalidatedSuperblock -->
<g id="node7" class="node">
<title>InvalidatedSuperblock</title>
<ellipse fill="none" stroke="black" cx="107.89" cy="-26.87" rx="107.78" ry="18"/>
<text text-anchor="middle" x="107.89" y="-23.17" font-family="Times,serif" font-size="14.00">Superblock is invalid</text>
</g>
<!-- BattleOverClaim&#45;&gt;InvalidatedSuperblock -->
<g id="edge3" class="edge">
<title>BattleOverClaim&#45;&gt;InvalidatedSuperblock</title>
<path fill="none" stroke="black" d="M118.91,-387.96C110.55,-383.11 102.98,-376.82 97.89,-368.69 34.96,-268.13 76.69,-116.15 97.78,-54.88"/>
<polygon fill="black" stroke="black" points="101.17,-55.78 101.21,-45.19 94.57,-53.45 101.17,-55.78"/>
<text text-anchor="middle" x="171.39" y="-231.49" font-family="Times,serif" font-size="14.00">B: sessionDecided</text>
<text text-anchor="middle" x="171.39" y="-216.49" font-family="Times,serif" font-size="14.00"> The submitter lost the battle</text>
</g>
<!-- GoodSuperblock&#45;&gt;BattleOverClaim -->
<g id="edge6" class="edge">
<title>GoodSuperblock&#45;&gt;BattleOverClaim</title>
<path fill="none" stroke="black" d="M346.35,-301.34C345.89,-320.48 342.07,-351.07 323.89,-368.69 315.03,-377.28 293.34,-384.16 268.96,-389.47"/>
<polygon fill="black" stroke="black" points="268.21,-386.05 259.13,-391.5 269.63,-392.9 268.21,-386.05"/>
<text text-anchor="middle" x="429.39" y="-342.49" font-family="Times,serif" font-size="14.00">C: challengeSuperblock</text>
</g>
<!-- GoodSuperblock&#45;&gt;SemiApprovedClaim -->
<g id="edge5" class="edge">
<title>GoodSuperblock&#45;&gt;SemiApprovedClaim</title>
<path fill="none" stroke="black" d="M346.91,-265.04C348.56,-250.02 352.83,-228.23 363.89,-212.69 367.26,-207.97 371.17,-203.54 375.43,-199.4"/>
<polygon fill="black" stroke="black" points="377.77,-202.01 382.89,-192.74 373.1,-196.79 377.77,-202.01"/>
<text text-anchor="middle" x="443.89" y="-231.49" font-family="Times,serif" font-size="14.00">*: checkClaimFinished</text>
<text text-anchor="middle" x="443.89" y="-216.49" font-family="Times,serif" font-size="14.00"> The claim is mature</text>
</g>
<!-- SemiApprovedClaim&#45;&gt;ApprovedClaim -->
<g id="edge9" class="edge">
<title>SemiApprovedClaim&#45;&gt;ApprovedClaim</title>
<path fill="none" stroke="black" d="M520.78,-122.93C533.46,-116.41 546.27,-109.25 557.89,-101.74 575.38,-90.44 575.73,-81.93 593.89,-71.74 604.21,-65.95 615.41,-60.75 626.77,-56.13"/>
<polygon fill="black" stroke="black" points="628.29,-59.29 636.33,-52.39 625.74,-52.78 628.29,-59.29"/>
<text text-anchor="middle" x="720.39" y="-90.54" font-family="Times,serif" font-size="14.00">*: confirmClaim</text>
<text text-anchor="middle" x="720.39" y="-75.54" font-family="Times,serif" font-size="14.00"> The parent superblock is canonical</text>
</g>
<!-- SemiApprovedClaim&#45;&gt;InvalidatedSuperblock -->
<g id="edge10" class="edge">
<title>SemiApprovedClaim&#45;&gt;InvalidatedSuperblock</title>
<path fill="none" stroke="black" d="M273.16,-144.29C209.06,-136.37 146.44,-123.28 123.89,-101.74 111.56,-89.96 107.62,-71.09 106.74,-55.38"/>
<polygon fill="black" stroke="black" points="110.23,-55.06 106.55,-45.12 103.23,-55.19 110.23,-55.06"/>
<text text-anchor="middle" x="338.89" y="-90.54" font-family="Times,serif" font-size="14.00">*: rejectClaim</text>
<text text-anchor="middle" x="338.89" y="-75.54" font-family="Times,serif" font-size="14.00"> The superblock is not part of the canonical superblockchain</text>
</g>
</g>
</svg>
