<?xml version="1.0" encoding="UTF-8" standalone="no"?>
<!DOCTYPE svg PUBLIC "-//W3C//DTD SVG 1.1//EN"
 "http://www.w3.org/Graphics/SVG/1.1/DTD/svg11.dtd">
<!-- Generated by graphviz version 2.47.3 (0)
 -->
<!-- Title: SuperblockClaims Pages: 1 -->
<svg width="1102pt" height="622pt"
 viewBox="0.00 0.00 1101.89 622.43" xmlns="http://www.w3.org/2000/svg" xmlns:xlink="http://www.w3.org/1999/xlink">
<g id="graph0" class="graph" transform="scale(1 1) rotate(0) translate(4 618.43)">
<title>SuperblockClaims</title>
<polygon fill="white" stroke="transparent" points="-4,4 -4,-618.43 1097.89,-618.43 1097.89,4 -4,4"/>
<!-- NewSuperblock -->
<g id="node1" class="node">
<title>NewSuperblock</title>
<ellipse fill="none" stroke="black" cx="517.89" cy="-596.43" rx="85.29" ry="18"/>
<text text-anchor="middle" x="517.89" y="-592.73" font-family="Times,serif" font-size="14.00">New superblock</text>
</g>
<!-- ClaimSubmitted -->
<g id="node2" class="node">
<title>ClaimSubmitted</title>
<ellipse fill="none" stroke="black" cx="517.89" cy="-500.56" rx="279.11" ry="26.74"/>
<text text-anchor="middle" x="517.89" y="-504.36" font-family="Times,serif" font-size="14.00">New claim</text>
<text text-anchor="middle" x="517.89" y="-489.36" font-family="Times,serif" font-size="14.00"> Superblock claim in good standing but not approved</text>
</g>
<!-- NewSuperblock&#45;&gt;ClaimSubmitted -->
<g id="edge1" class="edge">
<title>NewSuperblock&#45;&gt;ClaimSubmitted</title>
<path fill="none" stroke="black" d="M517.89,-578.22C517.89,-566.91 517.89,-551.7 517.89,-537.81"/>
<polygon fill="black" stroke="black" points="521.39,-537.53 517.89,-527.53 514.39,-537.53 521.39,-537.53"/>
<text text-anchor="middle" x="596.39" y="-549.23" font-family="Times,serif" font-size="14.00">S: proposeSuperblock</text>
</g>
<!-- BattleOverClaim -->
<g id="node3" class="node">
<title>BattleOverClaim</title>
<ellipse fill="none" stroke="black" cx="149.89" cy="-404.69" rx="129.98" ry="18"/>
<text text-anchor="middle" x="149.89" y="-400.99" font-family="Times,serif" font-size="14.00">Claim is being challenged</text>
</g>
<!-- ClaimSubmitted&#45;&gt;BattleOverClaim -->
<g id="edge2" class="edge">
<title>ClaimSubmitted&#45;&gt;BattleOverClaim</title>
<path fill="none" stroke="black" d="M415.17,-475.49C388.96,-469.19 360.85,-462.31 334.89,-455.69 294.96,-445.51 250.36,-433.48 214.96,-423.77"/>
<polygon fill="black" stroke="black" points="215.8,-420.37 205.23,-421.1 213.95,-427.12 215.8,-420.37"/>
<text text-anchor="middle" x="419.39" y="-444.49" font-family="Times,serif" font-size="14.00">C: challengeSuperblock</text>
</g>
<!-- SemiApprovedClaim -->
<g id="node5" class="node">
<title>SemiApprovedClaim</title>
<ellipse fill="none" stroke="black" cx="425.89" cy="-157.22" rx="183.7" ry="37.45"/>
<text text-anchor="middle" x="425.89" y="-168.52" font-family="Times,serif" font-size="14.00">Claim is part of a superblockchain</text>
<text text-anchor="middle" x="425.89" y="-153.52" font-family="Times,serif" font-size="14.00"> that was challenged at least once</text>
<text text-anchor="middle" x="425.89" y="-138.52" font-family="Times,serif" font-size="14.00"> but remains in good standing</text>
</g>
<!-- ClaimSubmitted&#45;&gt;SemiApprovedClaim -->
<g id="edge8" class="edge">
<title>ClaimSubmitted&#45;&gt;SemiApprovedClaim</title>
<path fill="none" stroke="black" d="M517.92,-473.58C517.81,-407.23 516.31,-235.17 503.89,-212.69 501.36,-208.11 498.26,-203.83 494.77,-199.85"/>
<polygon fill="black" stroke="black" points="497.12,-197.25 487.63,-192.54 492.12,-202.14 497.12,-197.25"/>
<text text-anchor="middle" x="669.89" y="-357.49" font-family="Times,serif" font-size="14.00">*: checkClaimFinished</text>
<text text-anchor="middle" x="669.89" y="-342.49" font-family="Times,serif" font-size="14.00"> The claim is mature</text>
<text text-anchor="middle" x="669.89" y="-327.49" font-family="Times,serif" font-size="14.00"> The parent superblock is not approved yet</text>
</g>
<!-- ApprovedClaim -->
<g id="node6" class="node">
<title>ApprovedClaim</title>
<ellipse fill="none" stroke="black" cx="697.89" cy="-26.87" rx="274.21" ry="26.74"/>
<text text-anchor="middle" x="697.89" y="-30.67" font-family="Times,serif" font-size="14.00">Claim is approved and the superblock</text>
<text text-anchor="middle" x="697.89" y="-15.67" font-family="Times,serif" font-size="14.00"> is considered part of the canonical superblockchain</text>
</g>
<!-- ClaimSubmitted&#45;&gt;ApprovedClaim -->
<g id="edge7" class="edge">
<title>ClaimSubmitted&#45;&gt;ApprovedClaim</title>
<path fill="none" stroke="black" d="M687.9,-479.13C765.72,-464.87 840.89,-441.75 840.89,-405.69 840.89,-405.69 840.89,-405.69 840.89,-156.22 840.89,-118.16 851.51,-100.76 826.89,-71.74 822.31,-66.35 817.05,-61.62 811.31,-57.46"/>
<polygon fill="black" stroke="black" points="812.89,-54.32 802.61,-51.79 809.07,-60.18 812.89,-54.32"/>
<text text-anchor="middle" x="967.39" y="-294.49" font-family="Times,serif" font-size="14.00">*: checkClaimFinished</text>
<text text-anchor="middle" x="967.39" y="-279.49" font-family="Times,serif" font-size="14.00"> The claim is mature</text>
<text text-anchor="middle" x="967.39" y="-264.49" font-family="Times,serif" font-size="14.00"> The parent superblock is canonical</text>
</g>
<!-- GoodSuperblock -->
<g id="node4" class="node">
<title>GoodSuperblock</title>
<ellipse fill="none" stroke="black" cx="325.89" cy="-283.19" rx="128.88" ry="18"/>
<text text-anchor="middle" x="325.89" y="-279.49" font-family="Times,serif" font-size="14.00">Claim is in good standing</text>
</g>
<!-- BattleOverClaim&#45;&gt;GoodSuperblock -->
<g id="edge4" class="edge">
<title>BattleOverClaim&#45;&gt;GoodSuperblock</title>
<path fill="none" stroke="black" d="M108.77,-387.51C101.22,-382.62 94.34,-376.43 89.89,-368.69 79.93,-351.35 76.97,-338.96 89.89,-323.69 104.55,-306.38 149.66,-296.65 196.58,-291.18"/>
<polygon fill="black" stroke="black" points="197.05,-294.65 206.6,-290.08 196.28,-287.69 197.05,-294.65"/>
<text text-anchor="middle" x="196.89" y="-349.99" font-family="Times,serif" font-size="14.00">B: sessionDecided</text>
<text text-anchor="middle" x="196.89" y="-334.99" font-family="Times,serif" font-size="14.00"> The submitter won the battle</text>
</g>
<!-- InvalidatedSuperblock -->
<g id="node7" class="node">
<title>InvalidatedSuperblock</title>
<ellipse fill="none" stroke="black" cx="107.89" cy="-26.87" rx="107.78" ry="18"/>
<text text-anchor="middle" x="107.89" y="-23.17" font-family="Times,serif" font-size="14.00">Superblock is invalid</text>
</g>
<!-- BattleOverClaim&#45;&gt;InvalidatedSuperblock -->
<g id="edge3" class="edge">
<title>BattleOverClaim&#45;&gt;InvalidatedSuperblock</title>
<path fill="none" stroke="black" d="M98.91,-387.96C90.55,-383.11 82.98,-376.82 77.89,-368.69 14.61,-267.57 69.07,-115.37 95.49,-54.45"/>
<polygon fill="black" stroke="black" points="98.76,-55.71 99.62,-45.15 92.36,-52.87 98.76,-55.71"/>
<text text-anchor="middle" x="156.39" y="-231.49" font-family="Times,serif" font-size="14.00">B: sessionDecided</text>
<text text-anchor="middle" x="156.39" y="-216.49" font-family="Times,serif" font-size="14.00"> The submitter lost the battle</text>
</g>
<!-- GoodSuperblock&#45;&gt;BattleOverClaim -->
<g id="edge6" class="edge">
<title>GoodSuperblock&#45;&gt;BattleOverClaim</title>
<path fill="none" stroke="black" d="M326.35,-301.34C325.89,-320.48 322.07,-351.07 303.89,-368.69 295.03,-377.28 273.34,-384.16 248.96,-389.47"/>
<polygon fill="black" stroke="black" points="248.21,-386.05 239.13,-391.5 249.63,-392.9 248.21,-386.05"/>
<text text-anchor="middle" x="409.39" y="-342.49" font-family="Times,serif" font-size="14.00">C: challengeSuperblock</text>
</g>
<!-- GoodSuperblock&#45;&gt;SemiApprovedClaim -->
<g id="edge5" class="edge">
<title>GoodSuperblock&#45;&gt;SemiApprovedClaim</title>
<path fill="none" stroke="black" d="M326.91,-265.04C328.56,-250.02 332.83,-228.23 343.89,-212.69 347.26,-207.97 351.17,-203.54 355.43,-199.4"/>
<polygon fill="black" stroke="black" points="357.77,-202.01 362.89,-192.74 353.1,-196.79 357.77,-202.01"/>
<text text-anchor="middle" x="423.89" y="-231.49" font-family="Times,serif" font-size="14.00">*: checkClaimFinished</text>
<text text-anchor="middle" x="423.89" y="-216.49" font-family="Times,serif" font-size="14.00"> The claim is mature</text>
</g>
<!-- SemiApprovedClaim&#45;&gt;ApprovedClaim -->
<g id="edge9" class="edge">
<title>SemiApprovedClaim&#45;&gt;ApprovedClaim</title>
<path fill="none" stroke="black" d="M485.32,-121.63C522.33,-100.21 564.61,-75.99 573.89,-71.74 585.8,-66.29 598.6,-61.07 611.3,-56.27"/>
<polygon fill="black" stroke="black" points="612.81,-59.44 620.97,-52.67 610.37,-52.88 612.81,-59.44"/>
<text text-anchor="middle" x="700.39" y="-90.54" font-family="Times,serif" font-size="14.00">*: confirmClaim</text>
<text text-anchor="middle" x="700.39" y="-75.54" font-family="Times,serif" font-size="14.00"> The parent superblock is canonical</text>
</g>
<!-- SemiApprovedClaim&#45;&gt;InvalidatedSuperblock -->
<g id="edge10" class="edge">
<title>SemiApprovedClaim&#45;&gt;InvalidatedSuperblock</title>
<path fill="none" stroke="black" d="M258.5,-141.53C201.62,-133.29 147.26,-120.7 126.89,-101.74 114.29,-90.01 109.59,-71.14 108.01,-55.42"/>
<polygon fill="black" stroke="black" points="111.49,-54.91 107.36,-45.15 104.5,-55.35 111.49,-54.91"/>
<text text-anchor="middle" x="322.39" y="-90.54" font-family="Times,serif" font-size="14.00">*: rejectClaim</text>
<text text-anchor="middle" x="322.39" y="-75.54" font-family="Times,serif" font-size="14.00"> The claim is not part of the canonical superblockchain</text>
</g>
</g>
</svg>
